HIERARCHY
ROOT Hips
{
	OFFSET 0.00000 0.00000 0.00000
	CHANNELS 6 Xposition Yposition Zposition Zrotation Yrotation Xrotation 
	JOINT LHipJoint
	{
		OFFSET 0 0 0
		CHANNELS 3 Zrotation Yrotation Xrotation
		JOINT LeftUpLeg
		{
			OFFSET 1.30186 -1.90722 0.65024
			CHANNELS 3 Zrotation Yrotation Xrotation
			JOINT LeftLeg
			{
				OFFSET 2.56413 -7.04489 0.00000
				CHANNELS 3 Zrotation Yrotation Xrotation
				JOINT LeftFoot
				{
					OFFSET 2.79321 -7.67428 0.00000
					CHANNELS 3 Zrotation Yrotation Xrotation
					JOINT LeftToeBase
					{
						OFFSET 0.15723 -0.43198 2.08537
						CHANNELS 3 Zrotation Yrotation Xrotation
						End Site
						{
							OFFSET 0.00000 -0.00000 1.07411
						}
					}
				}
			}
		}
	}
	JOINT RHipJoint
	{
		OFFSET 0 0 0
		CHANNELS 3 Zrotation Yrotation Xrotation
		JOINT RightUpLeg
		{
			OFFSET -1.28627 -1.90723 0.65024
			CHANNELS 3 Zrotation Yrotation Xrotation
			JOINT RightLeg
			{
				OFFSET -2.56567 -7.04913 0.00000
				CHANNELS 3 Zrotation Yrotation Xrotation
				JOINT RightFoot
				{
					OFFSET -2.75597 -7.57198 0.00000
					CHANNELS 3 Zrotation Yrotation Xrotation
					JOINT RightToeBase
					{
						OFFSET -0.17500 -0.48081 2.22901
						CHANNELS 3 Zrotation Yrotation Xrotation
						End Site
						{
							OFFSET -0.00000 -0.00000 1.14762
						}
					}
				}
			}
		}
	}
	JOINT LowerBack
	{
		OFFSET 0 0 0
		CHANNELS 3 Zrotation Yrotation Xrotation
		JOINT Spine
		{
			OFFSET -0.04522 2.07467 -0.16566
			CHANNELS 3 Zrotation Yrotation Xrotation
			JOINT Spine1
			{
				OFFSET -0.01178 2.08825 -0.05393
				CHANNELS 3 Zrotation Yrotation Xrotation
				JOINT Neck
				{
					OFFSET 0 0 0
					CHANNELS 3 Zrotation Yrotation Xrotation
					JOINT Neck1
					{
						OFFSET -0.05182 1.80489 0.16014
						CHANNELS 3 Zrotation Yrotation Xrotation
						JOINT Head
						{
							OFFSET 0.14739 1.78840 -0.33342
							CHANNELS 3 Zrotation Yrotation Xrotation
							End Site
							{
								OFFSET 0.04364 1.83899 -0.13460
							}
						}
					}
				}
				JOINT LeftShoulder
				{
					OFFSET 0 0 0
					CHANNELS 3 Zrotation Yrotation Xrotation
					JOINT LeftArm
					{
						OFFSET 3.01264 1.29090 -0.06579
						CHANNELS 3 Zrotation Yrotation Xrotation
						JOINT LeftForeArm
						{
							OFFSET 5.55680 -0.00000 0.00000
							CHANNELS 3 Zrotation Yrotation Xrotation
							JOINT LeftHand
							{
								OFFSET 3.63979 -0.00000 -0.00000
								CHANNELS 3 Zrotation Yrotation Xrotation
								JOINT LeftFingerBase
								{
									OFFSET 0 0 0
									CHANNELS 3 Zrotation Yrotation Xrotation
									JOINT LeftHandIndex1
									{
										OFFSET 0.56942 -0.00000 -0.00000
										CHANNELS 3 Zrotation Yrotation Xrotation
										End Site
										{
											OFFSET 0.45908 -0.00000 -0.00000
										}
									}
								}
								JOINT LThumb
								{
									OFFSET 0 0 0
									CHANNELS 3 Zrotation Yrotation Xrotation
									End Site
									{
										OFFSET 0.46609 -0.00000 0.46609
									}
								}
							}
						}
					}
				}
				JOINT RightShoulder
				{
					OFFSET 0 0 0
					CHANNELS 3 Zrotation Yrotation Xrotation
					JOINT RightArm
					{
						OFFSET -3.15796 1.37283 -0.36748
						CHANNELS 3 Zrotation Yrotation Xrotation
						JOINT RightForeArm
						{
							OFFSET -5.34339 -0.00000 0.00000
							CHANNELS 3 Zrotation Yrotation Xrotation
							JOINT RightHand
							{
								OFFSET -3.65101 -0.00000 -0.00000
								CHANNELS 3 Zrotation Yrotation Xrotation
								JOINT RightFingerBase
								{
									OFFSET 0 0 0
									CHANNELS 3 Zrotation Yrotation Xrotation
									JOINT RightHandIndex1
									{
										OFFSET -0.69425 -0.00000 -0.00000
										CHANNELS 3 Zrotation Yrotation Xrotation
										End Site
										{
											OFFSET -0.55972 -0.00000 -0.00000
										}
									}
								}
								JOINT RThumb
								{
									OFFSET 0 0 0
									CHANNELS 3 Zrotation Yrotation Xrotation
									End Site
									{
										OFFSET -0.56827 -0.00000 0.56827
									}
								}
							}
						}
					}
				}
			}
		}
	}
}
MOTION
Frames: 16
Frame Time: .0083333
17.3517 16.9894 -12.0786 0 0 0 0 0 0 -21 0 0 0 0 0 0 0 0 0 0 0 0 0 0 21 0 0 0 0 0 0 0 0 0 0 0 0 0 0 0 0 0 0 0 0 0 0 -16 0 0 21 0 0 11 0 0 0 -8 0 0 0 0 0 0 0 0 0 0 0 0 0 0 0 0 0 0 0 0 8 0 0 0 0 0 0 0 0 0 0 0 0 0 0 0 0 0
17.3517 16.9894 -12.0786 -3.5611 -73.3808 14.0944 0.0000 0.0000 0.0000 -7.7175 -8.8364 -46.5674 8.1040 16.1952 52.9364 0.8914 -8.3417 -16.9693 1.0475 -6.5083 -18.2667 0.0000 0.0000 0.0000 22.5819 2.8792 4.1428 -3.1858 -10.9899 32.2459 -0.3791 -13.0743 -22.6240 -1.9437 8.7479 -25.0097 1.6234 1.7857 5.9895 -0.4603 2.4098 2.6978 -1.5321 1.1988 -0.4909 -6.3139 -6.8208 -7.2725 7.3930 -9.2953 9.3860 2.6833 -4.4121 4.6446 -0.0000 -0.0000 0.0000 -78.7321 8.3603 15.4978 19.7083 -30.2893 -5.3835 -0.0000 0.0000 -7.9068 29.5324 17.4285 9.6303 -7.1250 0.0000 -0.0000 1.5747 49.8129 0.1869 -0.0000 -0.0000 0.0000 72.8548 -7.3038 7.0651 -21.6807 32.6143 -6.4129 0.0000 -0.0000 -5.3395 -13.7418 37.1001 -8.3914 7.1250 -0.0000 -0.0000 10.7008 7.3399 12.1818
17.2037 16.9781 -11.9711 -2.0557 -73.2700 12.4028 0.0000 0.0000 0.0000 -8.5412 -8.7878 -45.9148 8.2639 16.3100 53.5078 0.9895 -8.3153 -17.8411 1.2808 -7.1720 -20.2261 0.0000 0.0000 0.0000 21.8632 2.7415 3.1917 -3.7589 -11.8325 35.1420 -0.2228 -13.0864 -21.1003 -2.1060 9.0835 -26.0569 1.0383 1.7213 6.0603 -0.6008 2.2905 2.7307 -1.3436 1.1351 -0.5190 -6.5432 -7.0047 -7.2731 7.7574 -9.5610 9.3655 2.8096 -4.5317 4.6864 -0.0000 0.0000 0.0000 -78.2122 7.4453 15.4530 19.6805 -30.2555 -5.3694 -0.0000 0.0000 -8.4947 28.6821 17.1520 9.1650 -7.1250 0.0000 -0.0000 0.7677 49.3602 0.0825 -0.0000 0.0000 0.0000 72.4764 -7.2844 7.0775 -21.7493 32.6926 -6.4499 0.0000 -0.0000 -5.6056 -13.2836 37.3383 -8.1489 7.1250 -0.0000 -0.0000 10.9713 7.4939 12.5262
17.0613 16.9619 -11.8660 -1.8446 -73.0295 11.8948 0.0000 0.0000 0.0000 -8.8947 -8.7473 -45.2866 8.4004 16.4060 53.9925 1.0044 -8.9847 -18.0399 1.2955 -7.2115 -20.3434 0.0000 0.0000 0.0000 21.6011 2.8788 1.9320 -4.5573 -12.8672 38.8735 -0.1290 -12.6749 -19.5685 -1.8271 8.4964 -24.2321 0.9092 1.5478 6.2366 -0.6531 2.0523 2.7458 -1.3154 1.0144 -0.6113 -6.8571 -7.1066 -7.1985 8.1535 -9.7152 9.3473 2.9703 -4.5998 4.7151 -0.0000 0.0000 0.0000 -77.8640 6.5462 14.9501 19.6583 -30.2285 -5.3583 -0.0000 0.0000 -8.7425 27.5523 16.4829 8.4203 -7.1250 0.0000 -0.0000 -0.2414 48.4354 -0.0205 -0.0000 0.0000 0.0000 72.1144 -7.1891 7.1094 -21.7647 32.7100 -6.4582 0.0000 -0.0000 -5.7710 -13.1007 37.5142 -8.0661 7.1250 -0.0000 -0.0000 11.0886 7.6347 12.6885
16.9276 16.9311 -11.7537 -1.2512 -72.7076 11.0604 0.0000 0.0000 0.0000 -9.3730 -8.7707 -44.7950 8.5331 16.4977 54.4610 0.9649 -9.9826 -17.8447 1.0382 -6.4805 -18.1850 0.0000 0.0000 0.0000 21.0758 2.8301 0.5051 -5.4115 -13.8327 42.5715 -0.0464 -11.9617 -17.6305 -1.2877 7.1904 -20.2807 0.8619 1.3735 6.4200 -0.8060 1.8161 2.7415 -1.4358 0.8957 -0.7209 -7.0433 -7.1325 -7.1544 8.4926 -9.7779 9.3908 3.0995 -4.6207 4.7523 0.0000 0.0000 0.0000 -77.3423 5.4136 14.6846 19.4820 -30.0132 -5.2698 -0.0000 0.0000 -8.4778 28.8450 16.8582 9.0751 -7.1250 0.0000 -0.0000 0.9717 49.0603 0.0973 0.0000 0.0000 0.0000 71.8090 -7.1051 7.2131 -21.8317 32.7863 -6.4945 0.0000 -0.0000 -6.1805 -13.1754 37.3756 -8.0878 7.1250 -0.0000 -0.0000 11.0327 7.5119 12.6019
16.7890 16.8977 -11.6494 1.4794 -72.6962 8.1356 0.0000 0.0000 0.0000 -10.6384 -8.5593 -44.1517 8.6484 16.5760 54.8659 0.9510 -10.7391 -17.8646 0.8708 -5.9496 -16.6383 0.0000 0.0000 0.0000 19.7698 2.9813 -1.0009 -6.4108 -14.8150 46.6090 0.0925 -11.5808 -15.1104 -1.0526 6.5240 -18.3125 -0.0831 1.3926 6.5056 -1.0977 1.7771 2.8705 -1.2036 0.8696 -0.6569 -7.1454 -7.2258 -7.3249 8.7917 -9.9207 9.3943 3.1894 -4.6742 4.8142 0.0000 -0.0000 0.0000 -76.8468 3.9422 14.4489 19.3156 -29.8089 -5.1868 -0.0000 0.0000 -7.9158 29.8606 18.6234 10.3892 -7.1250 0.0000 -0.0000 1.7306 51.2069 0.2647 0.0000 -0.0000 0.0000 71.4419 -6.8906 7.1607 -21.9155 32.8813 -6.5399 0.0000 -0.0000 -6.6689 -13.0701 37.0662 -7.9657 7.1250 -0.0000 -0.0000 11.0515 7.1916 12.5706
16.6476 16.8657 -11.5592 4.0948 -72.7322 5.2266 0.0000 0.0000 0.0000 -11.8928 -8.0152 -43.4744 8.7756 16.6611 55.3108 0.9620 -11.2618 -18.0641 0.9226 -6.1196 -17.1317 0.0000 0.0000 0.0000 18.6471 3.4575 -2.4480 -7.5278 -15.7607 50.8436 0.2195 -11.4576 -12.6423 -0.9009 6.0490 -16.9266 -1.2103 1.4895 6.6786 -1.2855 1.8277 3.0509 -0.7706 0.8835 -0.5953 -7.4577 -7.4962 -7.4135 9.1333 -10.2726 9.2083 3.3120 -4.8389 4.8357 -0.0000 -0.0000 0.0000 -76.4013 2.4046 14.6066 19.3036 -29.7942 -5.1809 -0.0000 0.0000 -7.7655 30.2138 19.9657 11.2462 -7.1250 0.0000 -0.0000 1.8774 52.7721 0.3592 -0.0000 -0.0000 0.0000 70.8306 -6.6692 7.0933 -21.9937 32.9699 -6.5824 0.0000 -0.0000 -7.2339 -12.5976 36.8262 -7.6295 7.1250 -0.0000 -0.0000 11.2737 6.8778 12.7789
16.5158 16.8307 -11.4702 6.0731 -72.4606 2.9918 0.0000 0.0000 0.0000 -12.9325 -7.5979 -42.9348 8.9181 16.7547 55.8064 0.9796 -11.8403 -18.3364 1.0060 -6.3821 -17.8972 0.0000 0.0000 0.0000 17.7507 3.7575 -4.1867 -8.7343 -16.6337 55.1666 0.2582 -11.0731 -10.9928 -0.6096 4.9972 -13.9007 -2.0965 1.3699 6.9731 -1.4033 1.6001 3.1166 -0.3857 0.7608 -0.7118 -7.7864 -7.6654 -7.2252 9.3894 -10.4777 8.8496 3.4352 -4.9472 4.7434 -0.0000 0.0000 0.0000 -76.0722 0.8690 14.5118 19.1836 -29.6462 -5.1214 -0.0000 0.0000 -7.3365 31.2059 19.3428 11.3452 -7.1250 0.0000 -0.0000 3.0150 52.2692 0.5399 -0.0000 0.0000 0.0000 70.1790 -6.4087 7.3175 -22.0903 33.0789 -6.6351 0.0000 -0.0000 -7.6500 -12.0251 36.4822 -7.2183 7.1250 -0.0000 -0.0000 11.5398 6.4484 13.0161
16.3890 16.7916 -11.3860 8.0118 -72.1202 0.8060 0.0000 0.0000 0.0000 -13.9457 -7.2261 -42.3913 9.0649 16.8493 56.3144 0.9991 -12.4930 -18.6482 0.9968 -6.3538 -17.8146 0.0000 0.0000 0.0000 16.7872 3.8811 -6.1282 -10.0109 -17.4160 59.5248 0.2334 -10.3996 -10.1583 -0.3481 3.7909 -10.4892 -3.0180 1.1843 7.2988 -1.5530 1.2736 3.1532 -0.0054 0.5899 -0.8668 -7.8835 -7.6813 -7.0003 9.5461 -10.4935 8.5025 3.5096 -4.9620 4.6150 0.0000 0.0000 0.0000 -75.6883 -0.4049 14.3641 19.1929 -29.6577 -5.1260 -0.0000 0.0000 -6.8640 31.9904 18.3760 11.1400 -7.1250 0.0000 -0.0000 3.9547 51.3266 0.6171 0.0000 0.0000 0.0000 69.6880 -6.0719 7.6962 -22.2635 33.2735 -6.7298 0.0000 -0.0000 -7.8922 -11.5074 36.0873 -6.8380 7.1250 -0.0000 -0.0000 11.7746 5.9808 13.2063
16.2591 16.7504 -11.3080 9.1609 -71.8566 -0.6322 0.0000 0.0000 0.0000 -14.6752 -6.6130 -41.8823 9.2047 16.9376 56.7953 0.9664 -13.3518 -18.6204 0.7287 -5.4542 -15.2087 0.0000 0.0000 0.0000 16.1144 4.0734 -8.0764 -11.3290 -18.0923 63.8453 0.1924 -9.8107 -10.0040 -0.1696 2.6530 -7.3140 -3.7078 1.1157 7.4975 -1.7195 1.1199 3.2937 0.2192 0.5035 -0.8366 -7.6658 -7.7494 -6.9717 9.6427 -10.5982 8.1916 3.5010 -5.0080 4.5189 0.0000 -0.0000 0.0000 -75.0335 -1.9698 15.0297 19.3101 -29.8022 -5.1841 -0.0000 0.0000 -7.2090 32.7612 18.4150 11.4905 -7.1250 0.0000 -0.0000 4.7505 51.5189 0.7642 0.0000 -0.0000 0.0000 69.2561 -5.8344 8.2228 -22.6505 33.7044 -6.9434 0.0000 -0.0000 -8.5981 -10.8690 35.9348 -6.4291 7.1250 -0.0000 -0.0000 12.1006 5.7335 13.5411
16.1242 16.7136 -11.2294 11.0256 -71.6158 -2.7999 0.0000 0.0000 0.0000 -15.6990 -5.8984 -41.2349 9.2886 16.9899 57.0831 0.9478 -14.0276 -18.6762 0.5741 -4.8523 -13.4879 0.0000 0.0000 0.0000 15.1661 4.2434 -9.9773 -12.6834 -18.6648 68.1391 0.1561 -9.3087 -9.9575 -0.1978 2.8642 -7.9010 -4.6296 1.0740 7.6832 -1.9686 0.9811 3.4831 0.4876 0.4190 -0.7476 -7.4097 -7.8251 -7.0485 9.7889 -10.7242 7.9714 3.4949 -5.0576 4.4706 0.0000 0.0000 0.0000 -74.2439 -3.7563 16.0233 19.3867 -29.8964 -5.2222 -0.0000 0.0000 -7.7646 32.7247 18.6158 11.5923 -7.1250 0.0000 -0.0000 4.6920 51.7413 0.7804 0.0000 0.0000 0.0000 68.8751 -5.6016 8.6948 -23.0490 34.1423 -7.1658 0.0000 -0.0000 -9.2363 -10.2524 36.1945 -6.0967 7.1250 -0.0000 -0.0000 12.4540 5.8937 13.9864
15.9925 16.6875 -11.1496 13.6189 -71.2335 -5.8546 0.0000 0.0000 0.0000 -17.0512 -5.2769 -40.2462 9.3297 17.0153 57.2236 0.9773 -14.3945 -19.0142 0.5651 -4.8146 -13.3805 0.0000 0.0000 0.0000 13.8839 4.1314 -11.7442 -14.0498 -19.1291 72.3564 0.1238 -8.8709 -9.9670 -0.3131 3.5973 -9.9464 -5.8733 0.9559 8.2557 -2.1521 0.6803 3.5786 1.0112 0.2562 -0.9594 -7.7491 -7.8461 -6.8756 10.1888 -10.7640 7.8577 3.6748 -5.0763 4.4520 0.0000 -0.0000 0.0000 -73.7732 -5.3783 16.4478 19.3525 -29.8543 -5.2051 -0.0000 0.0000 -7.8518 32.3929 18.6203 11.4518 -7.1250 0.0000 -0.0000 4.3454 51.6820 0.7162 0.0000 -0.0000 0.0000 68.2562 -5.3856 9.3263 -23.3687 34.4895 -7.3460 0.0000 -0.0000 -9.5644 -9.6159 36.4830 -5.7523 7.1250 -0.0000 -0.0000 12.8185 6.0805 14.4534
15.8568 16.6659 -11.0503 20.5229 -70.9006 -13.2179 0.0000 0.0000 0.0000 -20.0694 -4.4094 -38.7347 9.3217 17.0104 57.1963 0.9972 -14.8355 -19.3020 0.3181 -3.6253 -10.0249 0.0000 0.0000 0.0000 10.6634 3.9382 -13.2369 -15.4165 -19.4887 76.4881 0.0406 -7.8301 -10.2598 -0.2490 3.2112 -8.8673 -8.4253 1.0067 8.8924 -2.6745 0.4516 3.7223 1.9045 0.1132 -1.1487 -8.2690 -7.8408 -6.7304 10.5302 -10.7537 7.8902 3.8668 -5.0748 4.4841 -0.0000 0.0000 0.0000 -73.3401 -6.9938 16.8533 19.3805 -29.8888 -5.2191 -0.0000 0.0000 -8.4491 32.8461 18.5157 11.5861 -7.1250 0.0000 -0.0000 4.8290 51.6506 0.7925 -0.0000 0.0000 0.0000 67.2622 -5.1679 10.6452 -23.8147 34.9677 -7.6001 0.0000 -0.0000 -10.2269 -8.8971 36.2076 -5.2832 7.1250 -0.0000 -0.0000 13.1757 5.7108 14.8009
15.7299 16.6425 -10.9763 22.6304 -70.5045 -15.4057 0.0000 0.0000 0.0000 -21.2349 -3.8374 -38.2058 9.3418 17.0227 57.2649 0.9487 -15.4324 -19.1417 0.2087 -2.9417 -8.1164 0.0000 0.0000 0.0000 9.2300 3.7581 -15.6710 -16.7913 -19.7513 80.5811 -0.0206 -7.0994 -10.5909 -0.1450 2.4543 -6.7631 -9.5742 0.8631 9.0811 -2.8437 0.1283 3.7228 2.3956 -0.0579 -1.2156 -8.2398 -7.8575 -6.8219 10.4988 -10.7745 7.9367 3.8467 -5.0823 4.5122 -0.0000 0.0000 0.0000 -72.7426 -8.5309 17.2792 19.7613 -30.3537 -5.4102 -0.0000 0.0000 -9.0287 33.0210 18.1861 11.4667 -7.1250 0.0000 -0.0000 5.0425 51.3069 0.7851 -0.0000 0.0000 0.0000 66.3740 -4.9315 12.2473 -24.3882 35.5721 -7.9313 0.0000 -0.0000 -11.1625 -8.7469 35.8898 -5.1539 7.1250 -0.0000 -0.0000 13.2294 5.3817 14.7956
15.6016 16.6214 -10.9013 21.0049 -70.2689 -14.3842 0.0000 0.0000 0.0000 -21.0039 -3.1864 -37.4087 9.3806 17.0465 57.3972 0.9012 -16.2844 -19.1016 0.2017 -2.8922 -7.9787 0.0000 0.0000 0.0000 9.4031 3.3447 -17.7125 -18.0854 -19.9119 84.3941 -0.0238 -7.2052 -10.8028 -0.2158 2.9910 -8.2536 -9.2338 0.6842 9.6166 -2.7467 -0.1382 3.7968 2.3355 -0.1830 -1.4068 -8.1797 -7.9717 -6.7573 10.4947 -10.9274 7.7917 3.8268 -5.1605 4.4685 -0.0000 0.0000 0.0000 -72.8183 -10.2802 17.0379 19.9780 -30.6158 -5.5201 -0.0000 0.0000 -8.1086 33.5269 17.5830 11.3182 -7.1250 0.0000 -0.0000 5.6156 50.7093 0.7922 -0.0000 0.0000 0.0000 65.7229 -4.7804 13.3473 -24.8963 36.0978 -8.2287 0.0000 -0.0000 -11.8523 -9.0613 35.9294 -5.3463 7.1250 -0.0000 -0.0000 13.0650 5.4639 14.6190
15.4858 16.6040 -10.8150 21.2790 -70.2398 -15.3335 0.0000 0.0000 0.0000 -21.4101 -2.2608 -36.3571 9.4113 17.0652 57.5018 0.8539 -17.2333 -19.1326 0.1043 -2.0822 -5.7329 0.0000 0.0000 0.0000 8.8866 3.2186 -19.6335 -19.3592 -19.9902 88.1262 -0.0143 -7.5410 -11.0596 -0.3429 3.7630 -10.4109 -9.3190 0.6468 10.3568 -2.7995 -0.2924 3.8645 2.3459 -0.2531 -1.7262 -8.3714 -8.0327 -6.5838 10.7178 -11.0173 7.6662 3.9255 -5.2081 4.4337 0.0000 0.0000 0.0000 -71.9455 -12.7248 18.0018 19.4500 -29.9740 -5.2538 -0.0000 0.0000 -8.5394 34.3988 17.6868 11.7509 -7.1250 0.0000 -0.0000 6.5121 50.9963 0.9656 0.0000 0.0000 0.0000 64.9250 -4.4984 14.3644 -25.2384 36.4466 -8.4311 0.0000 -0.0000 -12.3378 -9.2310 35.7052 -5.4182 7.1250 -0.0000 -0.0000 12.9558 5.2703 14.4507
